<svg width="32" height="33" viewBox="0 0 32 33" fill="none" xmlns="http://www.w3.org/2000/svg">
<rect width="32" height="32" transform="translate(0 0.5)" fill="black"/>
<path d="M10.7337 14.6818H11.9496V18.7386C11.9496 19.1136 11.8653 19.4394 11.6967 19.7159C11.5301 19.9924 11.2981 20.2055 11.0007 20.3551C10.7034 20.5047 10.3577 20.5795 9.96378 20.5795C9.6134 20.5795 9.29522 20.518 9.00923 20.3949C8.72514 20.2699 8.49976 20.0805 8.3331 19.8267C8.16643 19.571 8.08404 19.25 8.08594 18.8636H9.31037C9.31416 19.017 9.34541 19.1487 9.40412 19.2585C9.46473 19.3665 9.54711 19.4498 9.65128 19.5085C9.75734 19.5653 9.88234 19.5938 10.0263 19.5938C10.1778 19.5938 10.3056 19.5616 10.4098 19.4972C10.5159 19.4309 10.5964 19.3343 10.6513 19.2074C10.7062 19.0805 10.7337 18.9242 10.7337 18.7386V14.6818ZM14.1967 14.6818V20.5H12.9666V14.6818H14.1967ZM17.0604 14.6818H18.5774L20.1797 18.5909H20.2479L21.8501 14.6818H23.3672V20.5H22.174V16.7131H22.1257L20.62 20.4716H19.8075L18.3018 16.6989H18.2536V20.5H17.0604V14.6818ZM25.6108 14.6818V20.5H24.3807V14.6818H25.6108ZM31.4893 14.6818V20.5H30.4268L27.8956 16.8381H27.853V20.5H26.6229V14.6818H27.7024L30.2138 18.3409H30.2649V14.6818H31.4893ZM7.29474 26.3551C7.27202 26.1259 7.17448 25.9479 7.00213 25.821C6.82978 25.6941 6.59588 25.6307 6.30043 25.6307C6.09967 25.6307 5.93016 25.6591 5.7919 25.7159C5.65365 25.7708 5.54759 25.8475 5.47372 25.946C5.40175 26.0445 5.36577 26.1562 5.36577 26.2812C5.36198 26.3854 5.38376 26.4763 5.43111 26.554C5.48035 26.6316 5.54759 26.6989 5.63281 26.7557C5.71804 26.8106 5.81652 26.8589 5.92827 26.9006C6.04001 26.9403 6.15933 26.9744 6.28622 27.0028L6.80895 27.1278C7.06274 27.1847 7.29569 27.2604 7.50781 27.3551C7.71993 27.4498 7.90365 27.5663 8.05895 27.7045C8.21425 27.8428 8.33452 28.0057 8.41974 28.1932C8.50687 28.3807 8.55137 28.5956 8.55327 28.8381C8.55137 29.1941 8.46046 29.5028 8.28054 29.7642C8.10251 30.0237 7.84493 30.2254 7.50781 30.3693C7.17259 30.5114 6.76823 30.5824 6.29474 30.5824C5.82505 30.5824 5.41596 30.5104 5.06747 30.3665C4.72088 30.2225 4.45005 30.0095 4.25497 29.7273C4.06179 29.4432 3.96046 29.0919 3.95099 28.6733H5.14134C5.15459 28.8684 5.21046 29.0312 5.30895 29.1619C5.40933 29.2907 5.54285 29.3883 5.70952 29.4545C5.87808 29.5189 6.06842 29.5511 6.28054 29.5511C6.48887 29.5511 6.66974 29.5208 6.82315 29.4602C6.97846 29.3996 7.09872 29.3153 7.18395 29.2074C7.26918 29.0994 7.31179 28.9754 7.31179 28.8352C7.31179 28.7045 7.27296 28.5947 7.19531 28.5057C7.11955 28.4167 7.00781 28.3409 6.86009 28.2784C6.71425 28.2159 6.53527 28.1591 6.32315 28.108L5.68963 27.9489C5.1991 27.8295 4.81179 27.643 4.5277 27.3892C4.24361 27.1354 4.10251 26.7936 4.1044 26.3636C4.10251 26.0114 4.19626 25.7036 4.38565 25.4403C4.57694 25.1771 4.83925 24.9716 5.17259 24.8239C5.50592 24.6761 5.88471 24.6023 6.30895 24.6023C6.74077 24.6023 7.11766 24.6761 7.43963 24.8239C7.76349 24.9716 8.01539 25.1771 8.19531 25.4403C8.37524 25.7036 8.46804 26.0085 8.47372 26.3551H7.29474ZM9.38068 30.5V24.6818H13.3011V25.696H10.6108V27.0824H13.0994V28.0966H10.6108V29.4858H13.3125V30.5H9.38068ZM19.6257 27.5909C19.6257 28.2254 19.5054 28.7652 19.2649 29.2102C19.0263 29.6553 18.7005 29.9953 18.2876 30.2301C17.8767 30.4631 17.4145 30.5795 16.9013 30.5795C16.3842 30.5795 15.9202 30.4621 15.5092 30.2273C15.0982 29.9924 14.7734 29.6525 14.5348 29.2074C14.2962 28.7623 14.1768 28.2235 14.1768 27.5909C14.1768 26.9564 14.2962 26.4167 14.5348 25.9716C14.7734 25.5265 15.0982 25.1875 15.5092 24.9545C15.9202 24.7197 16.3842 24.6023 16.9013 24.6023C17.4145 24.6023 17.8767 24.7197 18.2876 24.9545C18.7005 25.1875 19.0263 25.5265 19.2649 25.9716C19.5054 26.4167 19.6257 26.9564 19.6257 27.5909ZM18.3786 27.5909C18.3786 27.1799 18.317 26.8333 18.1939 26.5511C18.0727 26.2689 17.9013 26.0549 17.6797 25.9091C17.4581 25.7633 17.1986 25.6903 16.9013 25.6903C16.6039 25.6903 16.3445 25.7633 16.1229 25.9091C15.9013 26.0549 15.7289 26.2689 15.6058 26.5511C15.4846 26.8333 15.424 27.1799 15.424 27.5909C15.424 28.0019 15.4846 28.3485 15.6058 28.6307C15.7289 28.9129 15.9013 29.1269 16.1229 29.2727C16.3445 29.4186 16.6039 29.4915 16.9013 29.4915C17.1986 29.4915 17.4581 29.4186 17.6797 29.2727C17.9013 29.1269 18.0727 28.9129 18.1939 28.6307C18.317 28.3485 18.3786 28.0019 18.3786 27.5909ZM25.4034 24.6818V30.5H24.3409L21.8097 26.8381H21.767V30.5H20.5369V24.6818H21.6165L24.1278 28.3409H24.179V24.6818H25.4034ZM30.2777 26.5625C30.2379 26.4242 30.1821 26.3021 30.1101 26.196C30.0381 26.0881 29.95 25.9972 29.8459 25.9233C29.7436 25.8475 29.6262 25.7898 29.4936 25.75C29.3629 25.7102 29.218 25.6903 29.0589 25.6903C28.7616 25.6903 28.5002 25.7642 28.2749 25.9119C28.0514 26.0597 27.8771 26.2746 27.7521 26.5568C27.6271 26.8371 27.5646 27.1799 27.5646 27.5852C27.5646 27.9905 27.6262 28.3352 27.7493 28.6193C27.8724 28.9034 28.0466 29.1203 28.272 29.2699C28.4974 29.4176 28.7635 29.4915 29.0703 29.4915C29.3487 29.4915 29.5864 29.4422 29.7834 29.3438C29.9822 29.2434 30.1338 29.1023 30.2379 28.9205C30.344 28.7386 30.397 28.5237 30.397 28.2756L30.647 28.3125H29.147V27.3864H31.5817V28.1193C31.5817 28.6307 31.4737 29.0701 31.2578 29.4375C31.0419 29.803 30.7446 30.0852 30.3658 30.2841C29.987 30.4811 29.5533 30.5795 29.0646 30.5795C28.5192 30.5795 28.04 30.4593 27.6271 30.2188C27.2143 29.9763 26.8923 29.6326 26.6612 29.1875C26.4321 28.7405 26.3175 28.2102 26.3175 27.5966C26.3175 27.125 26.3857 26.7045 26.522 26.3352C26.6603 25.964 26.8535 25.6496 27.1016 25.392C27.3497 25.1345 27.6385 24.9384 27.968 24.804C28.2976 24.6695 28.6546 24.6023 29.0391 24.6023C29.3686 24.6023 29.6754 24.6506 29.9595 24.7472C30.2436 24.8419 30.4955 24.9763 30.7152 25.1506C30.9368 25.3248 31.1177 25.5322 31.2578 25.7727C31.398 26.0114 31.4879 26.2746 31.5277 26.5625H30.2777Z" fill="white"/>
</svg>
