<svg width="1365" height="1365" viewBox="0 0 1365 1365" fill="none" xmlns="http://www.w3.org/2000/svg">
<rect width="1365" height="1365" fill="black"/>
<path d="M457.858 621.818H509.724V794.867C509.724 810.863 506.129 824.759 498.939 836.554C491.829 848.349 481.933 857.437 469.249 863.82C456.565 870.202 441.821 873.393 425.017 873.393C410.072 873.393 396.499 870.767 384.3 865.516C372.182 860.184 362.568 852.105 355.459 841.28C348.349 830.373 344.835 816.68 344.916 800.199H397.145C397.307 806.743 398.64 812.358 401.144 817.043C403.73 821.648 407.244 825.203 411.687 827.707C416.211 830.131 421.544 831.343 427.683 831.343C434.147 831.343 439.6 829.969 444.043 827.223C448.567 824.395 452.001 820.275 454.344 814.862C456.686 809.449 457.858 802.784 457.858 794.867V621.818ZM605.579 621.818V870H553.107V621.818H605.579ZM727.731 621.818H792.443L860.79 788.565H863.698L932.045 621.818H996.757V870H945.86V708.464H943.8L879.573 868.788H844.915L780.688 707.858H778.628V870H727.731V621.818ZM1092.46 621.818V870H1039.99V621.818H1092.46ZM1343.22 621.818V870H1297.9L1189.92 713.796H1188.1V870H1135.63V621.818H1181.68L1288.81 777.901H1290.99V621.818H1343.22ZM311.166 1106.19C310.197 1096.42 306.036 1088.83 298.685 1083.41C291.333 1078 281.356 1075.29 268.753 1075.29C260.189 1075.29 252.958 1076.5 247.061 1078.93C241.163 1081.27 236.639 1084.54 233.488 1088.74C230.418 1092.95 228.884 1097.71 228.884 1103.04C228.722 1107.49 229.651 1111.37 231.671 1114.68C233.771 1117.99 236.639 1120.86 240.275 1123.28C243.91 1125.62 248.111 1127.68 252.878 1129.46C257.644 1131.16 262.734 1132.61 268.147 1133.82L290.444 1139.16C301.27 1141.58 311.207 1144.81 320.255 1148.85C329.303 1152.89 337.14 1157.86 343.765 1163.76C350.389 1169.65 355.519 1176.6 359.155 1184.6C362.871 1192.6 364.77 1201.77 364.85 1212.11C364.77 1227.3 360.892 1240.46 353.217 1251.61C345.623 1262.68 334.635 1271.29 320.255 1277.43C305.956 1283.48 288.707 1286.51 268.51 1286.51C248.475 1286.51 231.024 1283.44 216.159 1277.3C201.375 1271.16 189.822 1262.08 181.501 1250.04C173.261 1237.92 168.939 1222.93 168.535 1205.08H219.31C219.876 1213.4 222.259 1220.35 226.46 1225.92C230.742 1231.42 236.437 1235.58 243.547 1238.4C250.737 1241.15 258.856 1242.53 267.904 1242.53C276.791 1242.53 284.506 1241.23 291.05 1238.65C297.675 1236.06 302.805 1232.47 306.44 1227.86C310.076 1223.26 311.894 1217.97 311.894 1211.99C311.894 1206.41 310.237 1201.73 306.925 1197.93C303.694 1194.13 298.927 1190.9 292.626 1188.24C286.405 1185.57 278.77 1183.15 269.722 1180.96L242.698 1174.18C221.774 1169.09 205.253 1161.13 193.135 1150.31C181.016 1139.48 174.998 1124.9 175.078 1106.56C174.998 1091.53 178.997 1078.4 187.076 1067.17C195.235 1055.94 206.424 1047.18 220.643 1040.88C234.862 1034.58 251.02 1031.43 269.116 1031.43C287.536 1031.43 303.613 1034.58 317.347 1040.88C331.162 1047.18 341.906 1055.94 349.581 1067.17C357.256 1078.4 361.215 1091.41 361.457 1106.19H311.166ZM400.145 1283V1034.82H567.377V1078.08H452.617V1137.22H558.773V1180.48H452.617V1239.74H567.861V1283H400.145ZM837.159 1158.91C837.159 1185.97 832.029 1209 821.769 1227.98C811.59 1246.97 797.694 1261.47 780.082 1271.49C762.551 1281.42 742.839 1286.39 720.945 1286.39C698.89 1286.39 679.097 1281.38 661.566 1271.37C644.035 1261.35 630.179 1246.85 620 1227.86C609.821 1208.88 604.731 1185.89 604.731 1158.91C604.731 1131.84 609.821 1108.82 620 1089.84C630.179 1070.85 644.035 1056.39 661.566 1046.45C679.097 1036.43 698.89 1031.43 720.945 1031.43C742.839 1031.43 762.551 1036.43 780.082 1046.45C797.694 1056.39 811.59 1070.85 821.769 1089.84C832.029 1108.82 837.159 1131.84 837.159 1158.91ZM783.96 1158.91C783.96 1141.38 781.334 1126.59 776.083 1114.56C770.913 1102.52 763.601 1093.39 754.149 1087.17C744.697 1080.95 733.629 1077.84 720.945 1077.84C708.261 1077.84 697.193 1080.95 687.741 1087.17C678.289 1093.39 670.937 1102.52 665.686 1114.56C660.515 1126.59 657.93 1141.38 657.93 1158.91C657.93 1176.44 660.515 1191.22 665.686 1203.26C670.937 1215.3 678.289 1224.43 687.741 1230.65C697.193 1236.87 708.261 1239.98 720.945 1239.98C733.629 1239.98 744.697 1236.87 754.149 1230.65C763.601 1224.43 770.913 1215.3 776.083 1203.26C781.334 1191.22 783.96 1176.44 783.96 1158.91ZM1083.61 1034.82V1283H1038.29L930.318 1126.8H928.501V1283H876.028V1034.82H922.078L1029.2 1190.9H1031.38V1034.82H1083.61ZM1291.53 1115.04C1289.84 1109.14 1287.45 1103.93 1284.38 1099.41C1281.31 1094.8 1277.56 1090.93 1273.11 1087.77C1268.75 1084.54 1263.74 1082.08 1258.09 1080.38C1252.51 1078.69 1246.33 1077.84 1239.55 1077.84C1226.86 1077.84 1215.71 1080.99 1206.1 1087.29C1196.57 1093.59 1189.13 1102.76 1183.8 1114.8C1178.47 1126.76 1175.8 1141.38 1175.8 1158.67C1175.8 1175.96 1178.43 1190.66 1183.68 1202.78C1188.93 1214.9 1196.36 1224.15 1205.98 1230.53C1215.59 1236.83 1226.94 1239.98 1240.03 1239.98C1251.91 1239.98 1262.05 1237.88 1270.45 1233.68C1278.93 1229.4 1285.39 1223.38 1289.84 1215.62C1294.36 1207.87 1296.62 1198.7 1296.62 1188.11L1307.29 1189.69H1243.3V1150.18H1347.16V1181.45C1347.16 1203.26 1342.55 1222 1333.34 1237.68C1324.13 1253.27 1311.45 1265.31 1295.29 1273.79C1279.13 1282.19 1260.63 1286.39 1239.79 1286.39C1216.52 1286.39 1196.08 1281.26 1178.47 1271C1160.86 1260.66 1147.12 1246 1137.27 1227.01C1127.49 1207.95 1122.6 1185.33 1122.6 1159.15C1122.6 1139.04 1125.51 1121.1 1131.33 1105.35C1137.23 1089.51 1145.47 1076.1 1156.05 1065.11C1166.63 1054.13 1178.95 1045.76 1193.01 1040.03C1207.07 1034.29 1222.3 1031.43 1238.7 1031.43C1252.75 1031.43 1265.84 1033.49 1277.96 1037.61C1290.08 1041.64 1300.82 1047.38 1310.2 1054.81C1319.65 1062.25 1327.36 1071.09 1333.34 1081.35C1339.32 1091.53 1343.16 1102.76 1344.85 1115.04H1291.53Z" fill="white"/>
</svg>
